HIERARCHY
ROOT hips
{
  OFFSET 0 9.313263304106702 1.2146308026317778
  CHANNELS 6 Xposition Yposition Zposition Yrotation Xrotation Zrotation
  JOINT spine
  {
    OFFSET -6.402521e-31 0.5173342420023708 0
    CHANNELS 3 Yrotation Xrotation Zrotation
    JOINT chest
    {
      OFFSET 0 1.130544299341115 0
      CHANNELS 3 Yrotation Xrotation Zrotation
      JOINT upperChest
      {
        OFFSET 0 1.0863555061129995 0
        CHANNELS 3 Yrotation Xrotation Zrotation
        JOINT neck
        {
          OFFSET 0 1.3773706506454462 0
          CHANNELS 3 Yrotation Xrotation Zrotation
          JOINT head
          {
            OFFSET 0 0.7374408940073979 0
            CHANNELS 3 Yrotation Xrotation Zrotation
            JOINT leftEye
            {
              OFFSET 0.25066580148932727 0.6408406698778757 0.15963719178883284
              CHANNELS 3 Yrotation Xrotation Zrotation
              End Site
              {
                OFFSET 0.25066580148932727 0.6408406698778757 0.15963719178883284
              }
            }
            JOINT rightEye
            {
              OFFSET -0.25066576739704244 0.6408406384191823 0.15963727561643756
              CHANNELS 3 Yrotation Xrotation Zrotation
              End Site
              {
                OFFSET -0.25066576739704244 0.6408406384191823 0.15963727561643756
              }
            }
          }
        }
        JOINT leftShoulder
        {
          OFFSET 0.3761817444281191 1.0539491987447769 0
          CHANNELS 3 Yrotation Xrotation Zrotation
          JOINT leftUpperArm
          {
            OFFSET 0.8702844380000002 0 0
            CHANNELS 3 Yrotation Xrotation Zrotation
            JOINT leftLowerArm
            {
              OFFSET 2.198527310000323 0 0
              CHANNELS 3 Yrotation Xrotation Zrotation
              JOINT leftHand
              {
                OFFSET 2.146852313968281 0 0
                CHANNELS 3 Yrotation Xrotation Zrotation
                JOINT leftIndexProximal
                {
                  OFFSET 0.6585177834681599 0.07380250427007962 0.18382213159631788
                  CHANNELS 3 Yrotation Xrotation Zrotation
                  JOINT leftIndexIntermediate
                  {
                    OFFSET 0.3323021288626682 -0.009606893929485771 -0.012820872253340998
                    CHANNELS 3 Yrotation Xrotation Zrotation
                    JOINT leftIndexDistal
                    {
                      OFFSET 0.2045908926985518 -0.0071133989147997845 -0.006828784783599051
                      CHANNELS 3 Yrotation Xrotation Zrotation
                      End Site
                      {
                        OFFSET 0.2045908926985518 -0.0071133989147997845 -0.006828784783599051
                      }
                    }
                  }
                }
                JOINT leftLittleProximal
                {
                  OFFSET 0.6110054258835662 0.07380246363125398 -0.29175655876064077
                  CHANNELS 3 Yrotation Xrotation Zrotation
                  JOINT leftLittleIntermediate
                  {
                    OFFSET 0.3144281999999998 -2.5124724523095665e-9 1.8658118799974588e-7
                    CHANNELS 3 Yrotation Xrotation Zrotation
                    JOINT leftLittleDistal
                    {
                      OFFSET 0.18116185580251631 0.002815456192251098 0.0034826415518049436
                      CHANNELS 3 Yrotation Xrotation Zrotation
                      End Site
                      {
                        OFFSET 0.18116185580251631 0.002815456192251098 0.0034826415518049436
                      }
                    }
                  }
                }
                JOINT leftMiddleProximal
                {
                  OFFSET 0.6637478005691111 0.07380246480054087 0.02046981859247815
                  CHANNELS 3 Yrotation Xrotation Zrotation
                  JOINT leftMiddleIntermediate
                  {
                    OFFSET 0.3705733999999994 -2.9611069152224445e-9 9.35054791928458e-8
                    CHANNELS 3 Yrotation Xrotation Zrotation
                    JOINT leftMiddleDistal
                    {
                      OFFSET 0.22861063500000056 -1.82673876025774e-9 -1.6740782024515788e-7
                      CHANNELS 3 Yrotation Xrotation Zrotation
                      End Site
                      {
                        OFFSET 0.22861063500000056 -1.82673876025774e-9 -1.6740782024515788e-7
                      }
                    }
                  }
                }
                JOINT leftRingProximal
                {
                  OFFSET 0.6561845547265777 0.07380246406440083 -0.13588087571513918
                  CHANNELS 3 Yrotation Xrotation Zrotation
                  JOINT leftRingIntermediate
                  {
                    OFFSET 0.3437531000000005 -2.746796123886952e-9 1.4935781944558357e-7
                    CHANNELS 3 Yrotation Xrotation Zrotation
                    JOINT leftRingDistal
                    {
                      OFFSET 0.1983118991198174 -0.002467117924596085 -0.004538141969590015
                      CHANNELS 3 Yrotation Xrotation Zrotation
                      End Site
                      {
                        OFFSET 0.1983118991198174 -0.002467117924596085 -0.004538141969590015
                      }
                    }
                  }
                }
                JOINT leftThumbProximal
                {
                  OFFSET 0.09767004258864787 -0.14930060425447422 -0.07008212897521154
                  CHANNELS 3 Yrotation Xrotation Zrotation
                  JOINT leftThumbIntermediate
                  {
                    OFFSET 0.36682123028154767 -0.015768465060082004 0.28693641268151077
                    CHANNELS 3 Yrotation Xrotation Zrotation
                    JOINT leftThumbDistal
                    {
                      OFFSET 0.21091084272403915 -0.016756648201192714 0.1933767059105508
                      CHANNELS 3 Yrotation Xrotation Zrotation
                      End Site
                      {
                        OFFSET 0.21091084272403915 -0.016756648201192714 0.1933767059105508
                      }
                    }
                  }
                }
              }
            }
          }
        }
        JOINT rightShoulder
        {
          OFFSET -0.37618174442811925 1.0539491987447769 0
          CHANNELS 3 Yrotation Xrotation Zrotation
          JOINT rightUpperArm
          {
            OFFSET -0.870284438 0 0
            CHANNELS 3 Yrotation Xrotation Zrotation
            JOINT rightLowerArm
            {
              OFFSET -2.1985273100003235 0 0
              CHANNELS 3 Yrotation Xrotation Zrotation
              JOINT rightHand
              {
                OFFSET -2.1468523139682802 0 0
                CHANNELS 3 Yrotation Xrotation Zrotation
                JOINT rightIndexProximal
                {
                  OFFSET -0.6585177834681599 0.07380250427007962 0.18382213159631788
                  CHANNELS 3 Yrotation Xrotation Zrotation
                  JOINT rightIndexIntermediate
                  {
                    OFFSET -0.3323021288626682 -0.009606893929485771 -0.012820872253340998
                    CHANNELS 3 Yrotation Xrotation Zrotation
                    JOINT rightIndexDistal
                    {
                      OFFSET -0.2045908926985518 -0.0071133989147997845 -0.006828784783599051
                      CHANNELS 3 Yrotation Xrotation Zrotation
                      End Site
                      {
                        OFFSET -0.2045908926985518 -0.0071133989147997845 -0.006828784783599051
                      }
                    }
                  }
                }
                JOINT rightLittleProximal
                {
                  OFFSET -0.6110054258835662 0.07380246363125398 -0.29175655876064077
                  CHANNELS 3 Yrotation Xrotation Zrotation
                  JOINT rightLittleIntermediate
                  {
                    OFFSET -0.3144281999999998 -2.5124724523095665e-9 1.8658118799974588e-7
                    CHANNELS 3 Yrotation Xrotation Zrotation
                    JOINT rightLittleDistal
                    {
                      OFFSET -0.18116185580251631 0.002815456192251098 0.0034826415518049436
                      CHANNELS 3 Yrotation Xrotation Zrotation
                      End Site
                      {
                        OFFSET -0.18116185580251631 0.002815456192251098 0.0034826415518049436
                      }
                    }
                  }
                }
                JOINT rightMiddleProximal
                {
                  OFFSET -0.6637478005691111 0.07380246480054087 0.02046981859247815
                  CHANNELS 3 Yrotation Xrotation Zrotation
                  JOINT rightMiddleIntermediate
                  {
                    OFFSET -0.3705733999999994 -2.9611069152224445e-9 9.35054791928458e-8
                    CHANNELS 3 Yrotation Xrotation Zrotation
                    JOINT rightMiddleDistal
                    {
                      OFFSET -0.22861063500000056 -1.82673876025774e-9 -1.6740782024515788e-7
                      CHANNELS 3 Yrotation Xrotation Zrotation
                      End Site
                      {
                        OFFSET -0.22861063500000056 -1.82673876025774e-9 -1.6740782024515788e-7
                      }
                    }
                  }
                }
                JOINT rightRingProximal
                {
                  OFFSET -0.6561845547265777 0.07380246406440083 -0.13588087571513918
                  CHANNELS 3 Yrotation Xrotation Zrotation
                  JOINT rightRingIntermediate
                  {
                    OFFSET -0.3437531000000005 -2.746796123886952e-9 1.4935781944558357e-7
                    CHANNELS 3 Yrotation Xrotation Zrotation
                    JOINT rightRingDistal
                    {
                      OFFSET -0.1983118991198174 -0.002467117924596085 -0.004538141969590015
                      CHANNELS 3 Yrotation Xrotation Zrotation
                      End Site
                      {
                        OFFSET -0.1983118991198174 -0.002467117924596085 -0.004538141969590015
                      }
                    }
                  }
                }
                JOINT rightThumbProximal
                {
                  OFFSET -0.09767004258864787 -0.14930060425447422 -0.07008212897521154
                  CHANNELS 3 Yrotation Xrotation Zrotation
                  JOINT rightThumbIntermediate
                  {
                    OFFSET -0.36682123028154767 -0.015768465060082004 0.28693641268151077
                    CHANNELS 3 Yrotation Xrotation Zrotation
                    JOINT rightThumbDistal
                    {
                      OFFSET -0.21091084272403915 -0.016756648201192714 0.1933767059105508
                      CHANNELS 3 Yrotation Xrotation Zrotation
                      End Site
                      {
                        OFFSET -0.21091084272403915 -0.016756648201192714 0.1933767059105508
                      }
                    }
                  }
                }
              }
            }
          }
        }
      }
    }
  }
  JOINT leftUpperLeg
  {
    OFFSET 0.7715603 -0.3993844658041501 0
    CHANNELS 3 Yrotation Xrotation Zrotation
    JOINT leftLowerLeg
    {
      OFFSET 0 -3.529830000249343 0
      CHANNELS 3 Yrotation Xrotation Zrotation
      JOINT leftFoot
      {
        OFFSET 0 -4.154939295409685 0.004208579085223096
        CHANNELS 3 Yrotation Xrotation Zrotation
        JOINT leftToes
        {
          OFFSET 0 -0.6353414391261847 1.10414981190622
          CHANNELS 3 Yrotation Xrotation Zrotation
          End Site
          {
            OFFSET 0 -0.6015820691747853 1.10414981190622
          }
        }
      }
    }
  }
  JOINT rightUpperLeg
  {
    OFFSET -0.7715603 -0.3993844658041501 0
    CHANNELS 3 Yrotation Xrotation Zrotation
    JOINT rightLowerLeg
    {
      OFFSET 0 -3.529830000249343 0
      CHANNELS 3 Yrotation Xrotation Zrotation
      JOINT rightFoot
      {
        OFFSET 0 -4.154939295409685 0.004208579085223096
        CHANNELS 3 Yrotation Xrotation Zrotation
        JOINT rightToes
        {
          OFFSET 0 -0.6353414391261847 1.10414981190622
          CHANNELS 3 Yrotation Xrotation Zrotation
          End Site
          {
            OFFSET 0 -0.6015820691747853 1.10414981190622
          }
        }
      }
    }
  }
}
MOTION
Frames: 4
Frame Time: 0.03333333333333333
-0.13338691808960654 9.551304903897371 -3.722518592010445 -26.442761930292786 7.083132569208843 0.8833137647891877 0.027198448836737252 -0.5382647636879878 0.07406315519183997 0.09810805092863312 -2.1546045160091913 0.503711893700199 0 0 0 0.2561294369838777 -0.9172794811034705 0.16136359847008205 2.437190595845788 -2.5539013845941905 0.8039909728661417 0 0 0 0 0 0 3.097676863082752 0.8641816289445675 -14.876030929094727 -12.080516662660223 9.600063952912887 -68.0261800742614 -33.64355856132805 6.653700341760833 0.26441199576968927 29.50315674592256 -1.0497701222383653 30.05184325674665 14.082291604861288 8.828972033500602 -18.538595999479405 -0.05857689962652867 0.07790963732386313 -34.01187749280068 -0.30033308663835373 0.5088709376265942 -21.24321871471465 19.578299006809722 11.314106516618214 -43.410742553434346 0.000008677483012554642 0.000007657858858993911 -48.33669827031723 -0.000002971925968132978 -0.000003753559341765995 -29.430594586942 13.802197862118403 10.5799524448102 -32.94632481876838 -0.000005344237279720975 0.000004135711586963696 -46.04751509203175 -0.00000310157616539091 -0.000003982954990722617 -22.75481015498945 18.730577057180074 11.114581123794643 -34.911802449341266 -0.000005723679794107814 0.0000022028877945940645 -47.377242676188914 0.0000010534671891488386 -0.000013703466968183853 -25.846233348010138 5.910794790652143 16.80405830387228 -22.842539897320716 40.68387470417608 0.415343572449434 0.4490014937939958 -5.230765498250856 -0.8548820803808976 -0.38552274988829877 -6.7051239745642635 1.7532574479019916 12.984432267440795 15.918805749827973 11.703457911779811 60.03426919648905 35.29625447345969 1.9811380830170704 3.300701102163973 -34.595874342704604 -3.9356537584170717 -4.030130082234516 3.8539546702655993 -0.06355953897678336 15.73114190335877 0.2983123923432754 0.5040554661309827 21.37809096646248 0.4352052114915468 0.9519437815415491 9.279191730287502 -23.907297488606712 8.799117326131935 10.870131730818647 -0.000009874487056922777 0.000007405797712266305 17.475436309991025 0.000015418146845393 -0.000004315004492356409 12.908428117201838 -0.9723549045949442 0.8420276957071084 10.818324155369615 0.000005993887099403975 -0.000003334111861484577 23.78631475762372 -0.000010113442486363247 -4.535085238095207e-7 11.842496100031713 -11.723172254993228 4.116747742643353 8.239062428848833 0.000004756511892797443 -0.000005319335521231259 24.22500084287902 -0.000011042517825697893 -0.000018598006181270536 10.246797571605304 -8.756269945115003 10.451537915186446 17.020045478966942 -15.379716750675003 -0.20256725089605085 0.13961901812589186 0.7152967076607377 -0.7050602826737318 0.35202429615180675 6.954328568106253 -8.443199664665416 2.163630883161353 11.230074018116774 2.3875570868627256 0.6435382894374542 4.9245900247441945 10.218914522065562 0.6748069104484111 0.0000017453636071293232 0.474996859506761 1.23794588119209e-7 -3.5641294615823287 -6.7199156794988735 1.3492750726146285 2.591367454266004 -2.5350575235469286 0.011763169141706052 6.4923039168146985 4.484144285644953 3.9574485418663117 -0.000001860386652209686 -1.892632502669229 3.140506132180583e-7
-0.12453271584077315 9.551686373623934 -3.718177639917494 -26.300330160190356 7.1640907688541535 0.9495232014033621 0.043713696025783115 -0.5529160236624217 0.12060972762959643 0.10285649393604408 -2.213190116774301 0.5292089192041486 0 0 0 0.2396074438119514 -0.9382456811906819 0.16108877268694907 2.358540932778404 -2.644426868710401 0.7965945517890934 0 0 0 0 0 0 3.074837846487965 0.8581187777470316 -14.886619015887302 -12.199024205145353 9.535045430428868 -67.96492245399175 -33.573728316716206 6.808805685097396 0.2228764145970292 29.178433886555098 -0.8908028521382888 30.1564246126993 14.085506404261556 8.830810654356524 -18.539613470956326 -0.058651711571006064 0.07801956078258573 -34.00833506695527 -0.3003766835750762 0.5089295835171831 -21.241537023990663 19.589589946402608 11.32263422442747 -43.40844033055066 -0.000007294399115325672 0.000009431457468455758 -48.336726334554434 -0.0000012142339996329637 -0.00000292411159549573 -29.43065895775719 13.80550442279443 10.581984833067244 -32.94561442133489 -0.000006415111008530515 0.000006183278800243557 -46.04762879109858 8.938871072274611e-7 -0.000010967650927162188 -22.754892648610763 18.741399594432647 11.117971897620244 -34.89023478670421 0.000005474349140852029 0.000008260431991170273 -47.28862759820063 0.0000016219725604656027 -0.0000017282242565984446 -25.841337997213813 5.909844599478932 16.802936351331063 -22.842125057835577 40.67621646480354 0.4151822316731843 0.4487866371951346 -5.232491076288339 -0.8549207713060748 -0.3855416146223336 -6.754009055178285 1.7666628953289396 12.993853247967646 16.00674258371157 11.955009874792115 59.98408689817441 35.24044778922262 2.345192996272102 3.4397593928854864 -34.476502771377376 -3.7492704214361727 -3.9458983038615916 3.8044822345288316 -0.045980461566914724 15.557069802464365 0.30039332381311296 0.5089637358104012 21.24051527765955 0.43566815813330567 0.9543605088044598 9.21575107425742 -23.713651615246214 8.695039033591323 10.70931982686272 0.0000066891993029823105 2.9316200454322285e-7 17.373405841450488 0.000002692865423492117 5.852216542782878e-7 12.81627980807571 -0.9743367433644645 0.8361969169853871 10.692043919004146 0.0000036593278014408317 -0.000003886941525553844 23.61146555784849 -0.000004274332475089591 -0.0000027861017809796635 11.74736217501899 -11.63261515441389 4.073251762459493 8.117286440792766 0.00000734596053759981 -0.0000023818020867574973 24.06468310252733 -0.000007694151176130963 -0.000017826125355179475 10.173170741338968 -8.749972061550576 10.347066749568938 16.947224394710847 -15.346883016820112 -0.20351028983021505 0.1401998879495224 0.7367522905995406 -0.7057725439593612 0.35220867799615085 6.672483419224242 -8.351831908691505 2.012482720093623 11.407384264015368 2.3778427758818594 0.6812888029527354 5.342558258969941 10.05584562170528 0.5966670026510317 -0.0000011403584510175438 0.4749942447351158 -8.94335764556494e-7 -3.5735371239720837 -6.746505438224366 1.2841228905868893 2.6056620956785186 -2.5371303817975 0.011773903281595133 6.500278797901379 4.421052947046293 3.9488439262003308 -0.0000014409371223194521 -1.8926331433489734 -0.000001123020586073421
-0.10814876041629097 9.552027095447885 -3.710722507693151 -25.886596768835602 7.241857027154111 1.1532416902495872 0.0397206284844868 -0.5420280983483072 0.1157092348672479 0.10711192541153265 -2.1697430958814734 0.5503549834144008 0 0 0 0.1738534747117911 -1.0021174298958329 0.1833121151774572 2.023484368495935 -2.9794808035627502 0.890783061963088 0 0 0 0 0 0 3.026813040005825 0.8454927916109815 -14.914138729006938 -12.306481925268429 9.339694386690235 -67.80618031257445 -33.38311586581209 7.008714023503942 0.21975774621372782 28.469228822122624 -0.5542077367539805 30.401404961364594 14.094940580835729 8.83622807267909 -18.542766446120485 -0.05886677273856284 0.07833220898080176 -33.99872292084427 -0.30044903397724904 0.5091000781702857 -21.23671759444948 19.62090911843776 11.346328376803264 -43.402357935477056 0.000002938850845667252 0.000005471386594110677 -48.336767738837764 -0.000007478370947432502 -0.0000046000416300214295 -29.430868620197195 13.815129553976993 10.58797871978276 -32.94379885163001 0.000001661319329652175 0.000005462613759188327 -46.048017382179204 0.0000019679696849329223 5.589356166134271e-7 -22.75513616670604 18.77138091214555 11.12833414501773 -34.8356843779257 -0.000010998505055571426 0.0000033133040112030693 -47.074038816503226 0.0000018592447894797752 -0.000013468824472669184 -25.827282881158176 5.907132635006492 16.79987732524317 -22.841122057259277 40.6544156052941 0.41474463452235405 0.448132809440489 -5.23726037309758 -0.855070518531884 -0.38554977585684885 -6.88113827695291 1.801714277250172 13.020747061551607 16.028108699055547 12.479677688033322 59.79983349398814 35.032296352461756 3.0645344137550117 3.656540928963796 -34.210033035631184 -3.2996288840488326 -3.7139563920500804 3.6853386111883353 -0.004542989190542807 15.132215244172794 0.30543081201360417 0.5209990686527954 20.90424172937787 0.43690955205733106 0.9609090135545847 9.043993630770153 -23.265865927407607 8.45325696680721 10.31265442627502 -2.056550092033366e-7 0.00000846538388151129 17.111330937908978 0.0000058120652204840635 -0.000004755777871665852 12.575185282999485 -0.9796384410499709 0.8212536747162387 10.367251539053804 0.0000031088323082856382 -0.000007093795984678461 23.201030163539336 -0.00001158747335237558 -0.000001976873406041525 11.49874298592937 -11.4234269951007 3.971260595840492 7.802566829028277 0.000002965423591253319 -0.00001677134472416933 23.687674816301392 -0.000019486636671274894 -0.000010390799882139005 9.975781599630361 -8.736544090496992 10.042637449951993 16.733000387506742 -15.260968735985697 -0.20602823113605367 0.1417079710346364 0.7971098693777535 -0.707771486869218 0.3527315721965535 6.686548754887437 -8.176642786826726 1.6186756365691861 11.701979951264335 2.3542606529617838 0.7026230804168037 5.535814940858827 9.768676942273293 0.3935000755483993 6.777343734192656e-8 0.4749977133097474 -3.5625961764389743e-7 -3.631310190067803 -6.830632735306689 1.0420025149782834 2.5259093917184785 -2.542850949411856 0.009798200259625564 6.4221848921107085 4.261808156876767 3.900225420334077 -2.734938212252725e-7 -1.8926314348696558 5.145999177874524e-7
-0.09270022538575258 9.552148472179065 -3.70246802299633 -25.265829437374887 7.314903680592475 1.383880149713474 0.0129117163566213 -0.5129470684285153 0.048889506412152416 0.10670462700626858 -2.0533027762156166 0.5453454819710887 0 0 0 0.0803145625909225 -1.0726917933381566 0.22002064421197687 1.5336451148390637 -3.32827051286636 1.0549678486364162 0 0 0 0 0 0 2.9844232806338247 0.8347299245450555 -14.952410870730795 -12.323041955306824 9.129198714241964 -67.63721199680538 -33.120029691997274 7.113615407234669 0.263018082725182 27.77161511814976 -0.25349187880289314 30.689473568010378 14.110082456202266 8.844947086525817 -18.547887805863894 -0.05919101343004942 0.07879024563237141 -33.98422898285178 -0.3005647411974805 0.5093815677873873 -21.228967672392873 19.668418543433408 11.382242120518617 -43.393152781899666 0.000021629830187162978 0.0000037325340942108986 -48.33690388609704 -0.000012296926963623055 3.4879369714320003e-7 -29.431255186946416 13.830522258895437 10.597575609920245 -32.940910377192964 -0.000006148062477477359 -0.00000311529865584187 -46.04855856829195 0.00001050900618920848 0.000003287086062852829 -22.755492656463606 18.816667469120905 11.145752148193651 -34.7632900386807 0.00000449481402160713 0.000006709477501853869 -46.80989923810868 0.0000075600309001015155 -0.0000034849348840348255 -25.80516452524443 5.902886077262053 16.79515421445469 -22.839635824459585 40.620391349023436 0.4141291009818298 0.44720999086349394 -5.244558842222098 -0.8553364986508597 -0.3856151716875299 -7.057202689532883 1.850705855584493 13.062947871170309 15.874471045987729 13.075723476635995 59.47874750869655 34.59652165662309 3.585818748970804 3.8157399468712776 -33.93649100802177 -2.9915761965036425 -3.3975145593546814 3.5405761643481783 0.04401091521433324 14.602253603187686 0.31163214305375814 0.5360827425150355 20.48363559047192 0.4387089726731515 0.9705298477995402 8.791706804354586 -22.763713818372626 8.178334235267773 9.80967338370677 -0.000008391814038618829 0.000010685589770901517 16.754996314393033 0.000015157774934727186 -0.000005595524508439073 12.238004672919157 -0.9872507852588287 0.8010708442294764 9.924930064941005 -0.0000012534168048645974 -0.000009749760460089644 22.7261540401461 -0.000004358605266151646 -0.0000025153629922740076 11.151604506992442 -11.18939112720164 3.853238638420063 7.3707360586730655 -0.0000013845381994959876 -0.000010913342319865263 23.249924960358772 -0.000013772301295932815 -0.000013028316529731226 9.689739759957847 -8.665101742170375 9.737256460595766 16.538981291773332 -15.140514443004312 -0.20954592175338987 0.1438034882198821 0.8901406212593183 -0.7108073650515235 0.35352809464191837 7.026700732772351 -8.015584169926234 1.2445808786315447 11.82213808646346 2.316180605633673 0.6790567335155703 5.234855638608761 9.615259970163454 0.1305033262440387 6.328410176230291e-8 0.47499701959482094 2.7019588606857836e-7 -3.763813364041301 -6.966224157323041 0.7605225208108 2.354344209627346 -2.55136144901973 0.005727145838286345 6.317642103891392 4.14606481868759 3.8271308239106867 -1.73924551403522e-10 -1.892631007749827 -0.00000174617307054385
